<!--?xml version="1.0" standalone="no"?-->
              <svg id="sw-js-blob-svg" viewBox="0 0 100 100" xmlns="http://www.w3.org/2000/svg" version="1.1" width="200px">
                    <defs> 
                        <linearGradient id="sw-gradient" x1="0" x2="1" y1="1" y2="0">
                            <stop id="stop1" stop-color="rgba(248, 117, 55, 1)" offset="0%"></stop>
                            <stop id="stop2" stop-color="rgba(251, 168, 31, 1)" offset="100%"></stop>
                        </linearGradient>
                    </defs>
                <path fill="url(#sw-gradient)" d="M23.6,-30C29.6,-23,33,-14.7,33,-7C33,0.7,29.6,7.9,26,15.8C22.4,23.7,18.6,32.2,12,36C5.4,39.7,-4.1,38.6,-12.8,35.3C-21.4,32.1,-29.1,26.7,-34,19.2C-38.8,11.7,-40.8,2.1,-38.7,-6.4C-36.7,-14.8,-30.7,-22.1,-23.6,-28.9C-16.5,-35.8,-8.2,-42.1,0.3,-42.4C8.7,-42.7,17.5,-37,23.6,-30Z" width="100%" height="100%" transform="translate(50 50)" stroke-width="0" style="transition: all 0.3s ease 0s;"></path>
              </svg>